<?xml version="1.0" encoding="UTF-8" standalone="no"?>
<!-- Created with Inkscape (http://www.inkscape.org/) -->

<svg
   width="36.542824mm"
   height="36.542828mm"
   viewBox="0 0 36.542824 36.542828"
   version="1.1"
   id="svg309"
   xmlns="http://www.w3.org/2000/svg"
   xmlns:svg="http://www.w3.org/2000/svg">
  <defs
     id="defs306" />
  <g
     id="layer1"
     transform="translate(-86.728586,-30.45235)">
    <circle
       style="fill:#212529;fill-opacity:1;stroke-width:0.415999;stroke-miterlimit:4.1;paint-order:stroke fill markers"
       id="path536"
       cx="105"
       cy="48.723763"
       r="18.271412" />
    <path
       fill-rule="evenodd"
       d="m 101.14359,56.332467 a 0.64292923,0.89514222 0 0 1 0.64292,-0.895138 h 11.57273 a 0.64292923,0.89514222 0 0 1 0,1.790282 h -11.57273 a 0.64292923,0.89514222 0 0 1 -0.64292,-0.895144 z m 0,-7.161136 a 0.64292923,0.89514222 0 0 1 0.64292,-0.895144 h 11.57273 a 0.64293089,0.8951445 0 0 1 0,1.790288 h -11.57273 a 0.64292923,0.89514222 0 0 1 -0.64292,-0.895144 z m 0,-7.161136 a 0.64292923,0.89514222 0 0 1 0.64292,-0.895144 h 11.57273 a 0.64292923,0.89514222 0 0 1 0,1.790282 h -11.57273 a 0.64292923,0.89514222 0 0 1 -0.64292,-0.895138 z m -1.473631,-2.424046 a 0.64292923,0.89514222 0 0 1 0,1.267521 l -1.92877,2.685427 a 0.64292923,0.89514222 0 0 1 -0.91041,0 l -0.64292,-0.895144 a 0.64375037,0.89628555 0 1 1 0.91041,-1.267522 l 0.18759,0.263146 1.47359,-2.053456 a 0.64292923,0.89514222 0 0 1 0.91036,0 z m 0,7.161136 a 0.64292923,0.89514222 0 0 1 0,1.267521 l -1.92877,2.685427 a 0.64292923,0.89514222 0 0 1 -0.91041,0 l -0.64292,-0.895144 a 0.64375037,0.89628555 0 1 1 0.91041,-1.267522 l 0.18759,0.263146 1.47359,-2.053456 a 0.64292923,0.89514222 0 0 1 0.91036,0 z m 0,7.161135 a 0.64292923,0.89514222 0 0 1 0,1.267522 l -1.92877,2.685427 a 0.64292923,0.89514222 0 0 1 -0.91041,0 l -0.64292,-0.895138 a 0.64375015,0.8962852 0 0 1 0.91041,-1.267521 l 0.18759,0.263146 1.47359,-2.053462 a 0.64292923,0.89514222 0 0 1 0.91036,0 z"
       id="path3376"
       style="fill:#ffffff;stroke-width:1.51725" />
  </g>
</svg>
