<?xml version="1.0" encoding="UTF-8" standalone="no"?>
<!-- Created with Inkscape (http://www.inkscape.org/) -->

<svg
   width="36.542824mm"
   height="36.542828mm"
   viewBox="0 0 36.542824 36.542828"
   version="1.1"
   id="svg309"
   xmlns="http://www.w3.org/2000/svg"
   xmlns:svg="http://www.w3.org/2000/svg">
  <defs
     id="defs306" />
  <g
     id="layer1"
     transform="translate(-86.728586,-30.45235)">
    <circle
       style="fill:#212529;fill-opacity:1;stroke-width:0.415999;stroke-miterlimit:4.1;paint-order:stroke fill markers"
       id="path536"
       cx="105"
       cy="48.723763"
       r="18.271412" />
    <path
       fill-rule="evenodd"
       d="m 95.999999,39.723763 h 1.125 v 16.875 H 114 v 1.125 H 95.999999 Z m 16.669121,3.502125 a 0.56250001,0.56250001 0 0 1 0.0788,0.792 l -5.0625,6.1875 a 0.56250001,0.56250001 0 0 1 -0.8325,0.04162 l -2.91037,-2.910375 -4.113001,5.655375 a 0.56250001,0.56250001 0 0 1 -0.909,-0.6615 l 4.500001,-6.1875 a 0.56250001,0.56250001 0 0 1 0.85275,-0.0675 l 2.93512,2.93625 4.66875,-5.707125 a 0.56250001,0.56250001 0 0 1 0.792,-0.07875 z"
       id="path5224"
       style="fill:#ffffff;stroke-width:1.125" />
  </g>
</svg>
