<?xml version="1.0" encoding="UTF-8" standalone="no"?>
<!-- Created with Inkscape (http://www.inkscape.org/) -->

<svg
   width="36.542824mm"
   height="36.542828mm"
   viewBox="0 0 36.542824 36.542828"
   version="1.1"
   id="svg309"
   xmlns="http://www.w3.org/2000/svg"
   xmlns:svg="http://www.w3.org/2000/svg">
  <defs
     id="defs306" />
  <g
     id="layer1"
     transform="translate(-86.728586,-30.45235)">
    <circle
       style="fill:#212529;fill-opacity:1;stroke-width:0.415999;stroke-miterlimit:4.1;paint-order:stroke fill markers"
       id="path536"
       cx="105"
       cy="48.723763"
       r="18.271412" />
    <g
       id="g5583"
       transform="translate(9.2714109,1.1249989)">
      <path
         fill-rule="evenodd"
         d="m 99.103588,55.473763 a 4.5,4.5 0 1 0 0,-9 4.5,4.5 0 0 0 0,9 z m 5.625002,-4.5 a 5.625001,5.625001 0 1 1 -11.250002,0 5.625001,5.625001 0 0 1 11.250002,0 z"
         id="path5411"
         style="fill:#ffffff;stroke-width:1.125" />
      <path
         d="m 97.346338,52.035763 c 0.0529,0.6705 0.58275,1.192499 1.53337,1.2555 v 0.495 h 0.42188 v -0.498375 c 0.984372,-0.06863 1.559252,-0.595126 1.559252,-1.357875 0,-0.69525 -0.43875,-1.053 -1.226252,-1.237501 l -0.333,-0.07875 v -1.35 c 0.423,0.04838 0.69075,0.279 0.754872,0.5985 h 0.74025 c -0.0529,-0.646875 -0.6075,-1.152 -1.495122,-1.207125 v -0.493875 h -0.42188 v 0.50625 c -0.84037,0.08212 -1.41187,0.58725 -1.41187,1.30275 0,0.63225 0.42525,1.035 1.13287,1.19925 l 0.279,0.06863 v 1.431 c -0.432,-0.06525 -0.71887,-0.30375 -0.783,-0.633375 h -0.7515 z m 1.53,-1.523251 c -0.41513,-0.09562 -0.64013,-0.292499 -0.64013,-0.587249 0,-0.33075 0.243,-0.57825 0.6435,-0.65025 v 1.237499 z m 0.486,0.839251 c 0.50512,0.117 0.736872,0.305999 0.736872,0.640125 0,0.381374 -0.289122,0.642375 -0.797622,0.69075 v -1.344375 z"
         id="path5413"
         style="fill:#ffffff;stroke-width:1.125" />
      <path
         d="m 87.853588,38.598763 a 1.125,1.125 0 0 0 -1.125,1.125 v 9 a 1.125,1.125 0 0 0 1.125,1.125 h 4.59337 c 0.0652,-0.387 0.16313,-0.76275 0.29025,-1.125 h -2.63362 a 2.25,2.25 0 0 0 -2.25,-2.25 v -4.5 a 2.25,2.25 0 0 0 2.25,-2.25 h 11.250002 a 2.25,2.25 0 0 0 2.25,2.25 v 3.969 c 0.4275,0.3825 0.80662,0.819 1.125,1.29825 v -7.51725 a 1.125,1.125 0 0 0 -1.125,-1.125 z"
         id="path5415"
         style="fill:#ffffff;stroke-width:1.125" />
      <path
         d="m 97.976338,44.317138 0.002,-0.09338 a 2.25,2.25 0 1 0 -3.5235,1.85625 6.72975,6.72975 0 0 1 3.52125,-1.762875 z"
         id="path5417"
         style="fill:#ffffff;stroke-width:1.125" />
    </g>
  </g>
</svg>
