<?xml version="1.0" encoding="UTF-8" standalone="no"?>
<!-- Created with Inkscape (http://www.inkscape.org/) -->

<svg
   width="36.542824mm"
   height="36.542828mm"
   viewBox="0 0 36.542824 36.542828"
   version="1.1"
   id="svg309"
   xmlns="http://www.w3.org/2000/svg"
   xmlns:svg="http://www.w3.org/2000/svg">
  <defs
     id="defs306" />
  <g
     id="layer1"
     transform="translate(-86.728586,-30.45235)">
    <circle
       style="fill:#212529;fill-opacity:1;stroke-width:0.415999;stroke-miterlimit:4.1;paint-order:stroke fill markers"
       id="path536"
       cx="105"
       cy="48.723763"
       r="18.271412" />
  </g>
  <path
     id="path4421"
     style="fill:#ffffff;stroke-width:0.987025"
     d="m 18.622547,11.021904 c -0.68105,0 -1.81736,0.25979 -2.88828,0.550962 a 61.645656,61.645656 0 0 0 -2.85063,0.858954 1.520019,1.520019 0 0 0 -1.03006,1.245655 c -0.58826,4.418908 0.77691,7.692626 2.43313,9.859146 a 11.624197,11.624197 0 0 0 2.48447,2.422864 7.0651274,7.0651274 0 0 0 1.03348,0.615984 c 0.27735,0.130286 0.57311,0.236127 0.81789,0.236127 0.24478,0 0.54152,-0.105839 0.81789,-0.236127 a 7.0661143,7.0661143 0 0 0 1.0369,-0.615984 11.622224,11.622224 0 0 0 2.48446,-2.422864 c 1.277,-1.670446 2.37713,-4.000476 2.54606,-7.005092 a 3.9705354,3.9705354 0 0 1 -0.28745,0.0308 3.9705354,3.9705354 0 0 1 -0.73576,-0.07529 c -0.15871,2.763995 -1.17513,4.887383 -2.33389,6.402797 a 10.586834,10.586834 0 0 1 -2.2586,2.20385 c -0.34151,0.239847 -0.6426,0.412045 -0.87949,0.523585 -0.11844,0.05626 -0.21587,0.09364 -0.29088,0.116352 a 0.6070206,0.6070206 0 0 1 -0.0992,0.02738 0.54286393,0.54286393 0 0 1 -0.0992,-0.02738 c -0.074,-0.02269 -0.16902,-0.06009 -0.28746,-0.116352 -0.23788,-0.111533 -0.5414,-0.282749 -0.88291,-0.523585 a 10.585847,10.585847 0 0 1 -2.2586,-2.20385 c -1.50719,-1.972075 -2.76778,-4.968995 -2.22096,-9.072055 a 0.4747592,0.4747592 0 0 1 0.32168,-0.383279 60.642838,60.642838 0 0 1 2.79929,-0.845266 c 1.0956,-0.297094 2.10507,-0.516742 2.6282,-0.516742 0.52411,0 1.53259,0.219648 2.62819,0.516742 a 3.9705354,3.9705354 0 0 1 0.15742,-1.043749 c -1.03951,-0.279501 -2.12691,-0.523585 -2.78561,-0.523585 z" />
  <path
     d="m 21.440157,16.099429 a 0.49351268,0.49351268 0 0 1 0,0.698814 l -2.96107,2.961076 a 0.49351268,0.49351268 0 0 1 -0.69882,0 l -1.48054,-1.480538 a 0.49413824,0.49413824 0 1 1 0.69882,-0.698814 l 1.13113,1.132118 2.61167,-2.612656 a 0.49351268,0.49351268 0 0 1 0.69881,0 z"
     id="path4423"
     style="fill:#ffffff;stroke-width:0.987025" />
  <path
     d="m 25.59998,12.170498 h -3.350563 v -0.0023 c 0,-0.449354 0.11583,-0.835217 0.342607,-1.153888 0.225477,-0.323617 0.651764,-0.702061 1.278999,-1.1448154 0.281158,-0.193962 0.478195,-0.3739121 0.594265,-0.5367503 0.116083,-0.1630526 0.170225,-0.3440186 0.170225,-0.5443753 0,-0.2172492 -0.06183,-0.3949332 -0.187789,-0.5250008 -0.123526,-0.1341835 -0.292691,-0.2013737 -0.498636,-0.2013737 -0.221364,0 -0.392875,0.083479 -0.515923,0.2510607 -0.123021,0.1657225 -0.181605,0.3924614 -0.172533,0.6777385 h -0.944051 c -0.01918,-0.5324212 0.120624,-0.9539462 0.417177,-1.2695233 0.297006,-0.3118663 0.701439,-0.4664576 1.223961,-0.4664576 0.483155,0 0.878717,0.1432505 1.186663,0.4320379 0.305877,0.2848621 0.457212,0.6569208 0.457212,1.1122509 0,0.3728814 -0.08744,0.6822734 -0.261778,0.9259124 -0.174186,0.2459101 -0.502535,0.521083 -0.980743,0.826149 -0.442954,0.280331 -0.744932,0.536953 -0.906539,0.763075 l -0.0025,0.0087 h 2.14925 z m 2.44237,0 h 0.949212 v -1.083186 h 0.553031 V 10.318055 H 28.991562 V 7.2548338 h -0.541284 -0.539845 l -1.816372,2.9960252 v 0.418222 0.418021 h 1.948087 v 1.083394 z m -1.233853,-1.851618 0.04,-0.06801 1.193464,-1.9785936 v 2.0453786 h -1.233652 z m -2.465878,2.646232 h 0.263646 v 2.530596 h -0.263646 -0.265298 v -1.146056 h -0.989399 v 1.146056 H 22.82304 22.55923 v -2.530596 h 0.26381 0.264882 v 0.949205 h 0.989399 v -0.949205 z m 2.792372,2.203268 -0.01136,-0.41431 c -0.0051,-0.203024 -0.08063,-0.347526 -0.22612,-0.433272 -0.02297,-0.01746 -0.05287,-0.02765 -0.08453,-0.04222 0.05564,-0.02108 0.104853,-0.04537 0.14904,-0.07564 0.165694,-0.110481 0.247368,-0.28878 0.247368,-0.532422 0,-0.210875 -0.0723,-0.381332 -0.220355,-0.508097 -0.147386,-0.128002 -0.341748,-0.19396 -0.584158,-0.19396 h -1.011659 -0.26531 v 2.52936 h 0.26531 0.26386 v -1.001561 h 0.527682 c 0.150264,0 0.259696,0.02514 0.32199,0.07214 0.06536,0.05071 0.09917,0.13028 0.100941,0.244879 l 0.0038,0.235794 c 9.93e-4,0.09688 0.0076,0.191702 0.01653,0.276827 0.01275,0.08801 0.02511,0.144293 0.03634,0.168603 h 0.584348 v -0.06801 c -0.04214,-0.02108 -0.07154,-0.04762 -0.08391,-0.08183 -0.01816,-0.03523 -0.02726,-0.09276 -0.0294,-0.176235 z m -0.559416,-1.182537 c -0.06763,0.05711 -0.167562,0.08348 -0.306735,0.08348 h -0.613633 v -0.669904 h 0.633632 c 0.129874,0 0.226929,0.02745 0.292263,0.08164 0.06662,0.05793 0.09829,0.139763 0.09829,0.251883 0,0.114606 -0.0347,0.196432 -0.103843,0.252914 z m 2.863068,0.288986 c 0.121633,0.106367 0.185706,0.277236 0.185706,0.514074 0,0.236232 -0.09236,0.424822 -0.28073,0.564578 -0.186779,0.139954 -0.441087,0.209224 -0.759367,0.209224 -0.319907,0 -0.570758,-0.07171 -0.749879,-0.219309 -0.179359,-0.147783 -0.275392,-0.360506 -0.29066,-0.635275 h 0.510964 c 0.0038,0.137482 0.05375,0.238893 0.14552,0.312694 0.09135,0.07171 0.219306,0.109874 0.38403,0.109874 0.169202,0 0.301119,-0.02637 0.395336,-0.08287 0.09312,-0.05482 0.14263,-0.127373 0.14263,-0.224252 0,-0.09584 -0.03256,-0.166543 -0.102455,-0.211484 -0.06776,-0.04451 -0.209832,-0.09193 -0.427095,-0.139346 -0.40196,-0.08906 -0.671561,-0.186128 -0.805535,-0.291669 -0.132977,-0.103692 -0.201996,-0.26446 -0.201996,-0.482744 0,-0.248174 0.08845,-0.442139 0.266535,-0.586632 0.179132,-0.142015 0.418023,-0.216015 0.722057,-0.216015 0.283833,0 0.51384,0.07276 0.691144,0.223841 0.178123,0.146547 0.277398,0.350207 0.298078,0.601885 h -0.513688 c -0.0088,-0.120171 -0.06435,-0.217248 -0.160787,-0.28672 -0.09627,-0.06987 -0.220367,-0.104928 -0.374302,-0.104928 -0.13458,0 -0.239508,0.02765 -0.314735,0.08801 -0.07583,0.05977 -0.114441,0.140997 -0.114441,0.247145 0,0.07379 0.03848,0.132949 0.119488,0.172943 0.07659,0.04286 0.242637,0.09235 0.498637,0.149019 0.364006,0.08575 0.611564,0.180555 0.735444,0.28796 z"
     id="path6371"
     style="fill:#ffffff;stroke-width:2.42386" />
</svg>
