<?xml version="1.0" encoding="UTF-8" standalone="no"?>
<svg
   width="238.85594"
   height="42.779999"
   viewBox="0 0 63.19725 11.319"
   version="1.1"
   id="svg58"
   xmlns="http://www.w3.org/2000/svg"
   xmlns:svg="http://www.w3.org/2000/svg">
  <g
     paint-order="stroke fill markers"
     id="g8"
     transform="translate(-3.7533642e-4)">
    <path
       d="M 4.086,9.384 H 4.003 L 0,6.539 V 5.719 L 4.086,2.866 v 1.667 l -2.37,1.592 2.37,1.599 z"
       fill="#3366cc"
       id="path2" />
    <path
       d="M 9.798,10.783 H 5.327 V 0 h 4.43 V 1.426 H 6.939 V 4.575 H 9.364 V 5.974 H 6.939 v 3.383 h 2.859 z m 6.27,-0.985 q 0,0.985 -0.978,0.985 h -3.245 q -0.972,0 -0.972,-0.985 v -2.57 h 1.612 v 2.198 h 1.971 V 7.311 L 11.225,4.252 Q 10.874,3.914 10.874,3.391 V 0.992 Q 10.874,0 11.846,0 h 3.245 q 0.978,0 0.978,0.978 V 3.39 H 14.457 V 1.357 h -1.971 v 1.95 l 3.231,3.045 q 0.351,0.331 0.351,0.875 z"
       id="path4"
       style="fill:#ffffff" />
    <path
       d="m 21.401,6.539 -4.01,2.846 H 17.295 V 7.724 L 19.679,6.125 17.295,4.533 V 2.866 h 0.096 l 4.01,2.853 z"
       fill="#3366cc"
       id="path6" />
  </g>
  <g
     id="layer1"
     style="display:inline">
    <text
       xml:space="preserve"
       transform="matrix(0.30153481,0,0,0.40554079,-2.4627265,-1.3485861)"
       id="text1"
       style="font-size:17.3333px;white-space:pre;shape-inside:url(#rect1);display:inline;fill:#ffffff"><tspan
         x="87.322266"
         y="18.839317"
         id="tspan4"><tspan
           style="font-weight:bold;font-stretch:condensed;font-family:'Agency FB';-inkscape-font-specification:'Agency FB Bold Condensed'"
           id="tspan3">ENTERPRISE SYSTEMS</tspan></tspan></text>
  </g>
  <defs
     id="defs56">
    <rect
       x="87.321777"
       y="2.6461146"
       width="138.83281"
       height="23.462215"
       id="rect1" />
  </defs>
  <text
     xml:space="preserve"
     style="font-style:normal;font-variant:normal;font-weight:normal;font-stretch:normal;font-size:3.8806px;font-family:'Agency FB';-inkscape-font-specification:'Agency FB';fill:#ffffff;stroke-width:0.264586"
     x="23.865747"
     y="10.487271"
     id="text2"><tspan
       id="tspan2"
       style="font-style:normal;font-variant:normal;font-weight:normal;font-stretch:normal;font-size:3.8806px;font-family:'Agency FB';-inkscape-font-specification:'Agency FB';stroke-width:0.264586"
       x="23.865747"
       y="10.487271">Assessment Website for S. Dow</tspan></text>
</svg>
