<?xml version="1.0" encoding="UTF-8" standalone="no"?>
<!-- Created with Inkscape (http://www.inkscape.org/) -->

<svg
   width="36.542824mm"
   height="36.542828mm"
   viewBox="0 0 36.542824 36.542828"
   version="1.1"
   id="svg309"
   xmlns="http://www.w3.org/2000/svg"
   xmlns:svg="http://www.w3.org/2000/svg">
  <defs
     id="defs306" />
  <g
     id="layer1"
     transform="translate(-86.728586,-30.45235)">
    <circle
       style="fill:#212529;fill-opacity:1;stroke-width:0.415999;stroke-miterlimit:4.1;paint-order:stroke fill markers"
       id="path536"
       cx="105"
       cy="48.723763"
       r="18.271412" />
    <path
       d="m 111.75,54.348763 v -7.875 a 0.56250001,0.56250001 0 0 0 -0.5625,-0.5625 H 109.5 v -1.6875 a 0.56250001,0.56250001 0 0 0 -0.5625,-0.5625 h -1.125 v -0.5625 a 0.56250001,0.56250001 0 0 0 -0.5625,-0.5625 h -4.5 a 0.56250001,0.56250001 0 0 0 -0.5625,0.5625 v 0.5625 h -1.125 a 0.56250001,0.56250001 0 0 0 -0.5625,0.5625 v 1.6875 h -1.6875 a 0.56250001,0.56250001 0 0 0 -0.5625,0.5625 v 7.875 a 0.56250001,0.56250001 0 0 0 0.5625,0.5625 h 12.375 a 0.56250001,0.56250001 0 0 0 0.5625,-0.5625 z m -11.53125,-2.8125 h 0.5625 a 0.28124999,0.28124999 0 0 1 0.28125,0.28125 v 1.687499 a 0.28124999,0.28124999 0 0 1 -0.28125,0.281251 h -0.5625 A 0.28124999,0.28124999 0 0 1 99.9375,53.505012 v -1.687499 a 0.28124999,0.28124999 0 0 1 0.28125,-0.28125 z m 2.25,0 h 0.5625 a 0.28124999,0.28124999 0 0 1 0.28125,0.28125 v 1.687499 a 0.28124999,0.28124999 0 0 1 -0.28125,0.281251 h -0.5625 a 0.28124999,0.28124999 0 0 1 -0.28125,-0.281251 v -1.687499 a 0.28124999,0.28124999 0 0 1 0.28125,-0.28125 z m 1.96875,0.28125 a 0.28124999,0.28124999 0 0 1 0.28125,-0.28125 h 0.5625 a 0.28124999,0.28124999 0 0 1 0.28125,0.28125 v 1.687499 a 0.28124999,0.28124999 0 0 1 -0.28125,0.281251 h -0.5625 a 0.28124999,0.28124999 0 0 1 -0.28125,-0.281251 z m 2.53125,-0.28125 h 0.5625 a 0.28124999,0.28124999 0 0 1 0.28125,0.28125 v 1.687499 a 0.28124999,0.28124999 0 0 1 -0.28125,0.281251 h -0.5625 a 0.28124999,0.28124999 0 0 1 -0.28125,-0.281251 v -1.687499 a 0.28124999,0.28124999 0 0 1 0.28125,-0.28125 z m 1.96875,0.28125 a 0.28124999,0.28124999 0 0 1 0.28125,-0.28125 h 0.5625 a 0.28124999,0.28124999 0 0 1 0.28125,0.28125 v 1.687499 a 0.28124999,0.28124999 0 0 1 -0.28125,0.281251 h -0.5625 a 0.28124999,0.28124999 0 0 1 -0.28125,-0.281251 z"
       id="path4489"
       style="fill:#ffffff;stroke-width:1.125" />
    <path
       d="m 98.25,39.723763 a 2.25,2.25 0 0 0 -2.25,2.25 v 13.5 a 2.25,2.25 0 0 0 2.25,2.25 h 13.5 a 2.25,2.25 0 0 0 2.25,-2.25 v -13.5 a 2.25,2.25 0 0 0 -2.25,-2.25 z m -1.125,2.25 a 1.125,1.125 0 0 1 1.125,-1.125 h 13.5 a 1.125,1.125 0 0 1 1.125,1.125 v 13.5 a 1.125,1.125 0 0 1 -1.125,1.125 h -13.5 a 1.125,1.125 0 0 1 -1.125,-1.125 z"
       id="path4491"
       style="fill:#ffffff;stroke-width:1.125" />
  </g>
</svg>
