<?xml version="1.0" encoding="UTF-8" standalone="no"?>
<!-- Created with Inkscape (http://www.inkscape.org/) -->

<svg
   width="36.542824mm"
   height="36.542828mm"
   viewBox="0 0 36.542824 36.542828"
   version="1.1"
   id="svg309"
   xmlns="http://www.w3.org/2000/svg"
   xmlns:svg="http://www.w3.org/2000/svg">
  <defs
     id="defs306" />
  <g
     id="layer1"
     transform="translate(-86.728586,-30.45235)">
    <circle
       style="fill:#212529;fill-opacity:1;stroke-width:0.415999;stroke-miterlimit:4.1;paint-order:stroke fill markers"
       id="path536"
       cx="105"
       cy="48.723763"
       r="18.271412" />
    <path
       d="m 101.625,48.723525 a 1.1250001,1.1250001 0 1 1 -2.25,0 1.1250001,1.1250001 0 0 1 2.25,0 z m 4.5,0 a 1.1250001,1.1250001 0 1 1 -2.25,0 1.1250001,1.1250001 0 0 1 2.25,0 z m 3.375,1.125 a 1.125,1.125 0 1 0 0,-2.25 1.125,1.125 0 0 0 0,2.25 z"
       id="path3933"
       style="fill:#ffffff;stroke-width:1.125" />
    <path
       d="m 98.435618,56.978293 0.0225,-0.0045 c 2.058752,-0.408375 3.316502,-0.94725 3.901502,-1.243125 A 10.1925,10.1925 0 0 0 105,56.074919 c 4.97025,0 9,-3.52575 9,-7.875 0,-4.34925 -4.02975,-7.875 -9,-7.875 -4.97025,0 -9.000002,3.52575 -9.000002,7.875 0,1.98 0.83587,3.79125 2.21625,5.175 a 11.741625,11.741625 0 0 1 -0.5895,2.60775 l -0.003,0.01237 a 12.06225,12.06225 0 0 1 -0.2745,0.716625 c -0.0889,0.20925 0.0833,0.44325 0.30713,0.40725 a 24.382125,24.382125 0 0 0 0.779619,-0.140625 z m 0.900005,-3.4965 a 1.125,1.125 0 0 0 -0.322875,-0.901125 c -1.1925,-1.197 -1.88775,-2.72925 -1.88775,-4.38075 0,-3.591 3.379502,-6.75 7.875002,-6.75 4.4955,0 7.875,3.159 7.875,6.75 0,3.592125 -3.3795,6.75 -7.875,6.75 a 9.0674998,9.0674998 0 0 1 -2.349,-0.306 1.125,1.125 0 0 0 -0.79988,0.08325 c -0.43537,0.2205 -1.395,0.64125 -2.963252,1.004625 a 12.34125,12.34125 0 0 0 0.447755,-2.25 z"
       id="path3935"
       style="fill:#ffffff;stroke-width:1.125" />
  </g>
</svg>
