<?xml version="1.0" encoding="UTF-8" standalone="no"?>
<!-- Created with Inkscape (http://www.inkscape.org/) -->

<svg
   width="36.542824mm"
   height="36.542828mm"
   viewBox="0 0 36.542824 36.542828"
   version="1.1"
   id="svg309"
   xmlns="http://www.w3.org/2000/svg"
   xmlns:svg="http://www.w3.org/2000/svg">
  <defs
     id="defs306" />
  <g
     id="layer1"
     transform="translate(-86.728586,-30.45235)">
    <circle
       style="fill:#212529;fill-opacity:1;stroke-width:0.415999;stroke-miterlimit:4.1;paint-order:stroke fill markers"
       id="path536"
       cx="105"
       cy="48.723763"
       r="18.271412" />
    <path
       d="m 96.160992,44.028034 c 0,0 0,-2.209752 2.209768,-2.209752 h 13.25852 c 0,0 2.20973,0 2.20973,2.209752 v 6.629262 c 0,0 0,2.209756 -2.20973,2.209756 h -4.41953 c 0,0.736953 0.0919,1.289392 0.27645,1.657316 h 0.82866 a 0.55243853,0.55243853 0 0 1 0,1.104875 h -6.62926 a 0.55243853,0.55243853 0 0 1 0,-1.104875 h 0.82863 c 0.18457,-0.36794 0.27603,-0.920363 0.27603,-1.657316 h -4.4195 c 0,0 -2.209768,0 -2.209768,-2.209756 z m 1.544629,-0.944667 a 0.83749686,0.83749686 0 0 0 -0.280622,0.333655 1.6131205,1.6131205 0 0 0 -0.159102,0.622044 v 6.618214 c 0,0.359086 0.08602,0.554649 0.160355,0.665135 0.07725,0.116007 0.187916,0.20771 0.333656,0.280663 a 1.6175401,1.6175401 0 0 0 0.594441,0.158017 l 0.02923,0.0011 h 13.247501 c 0.35913,0 0.55465,-0.08619 0.66514,-0.160188 a 0.83749686,0.83749686 0 0 0 0.28062,-0.333655 1.6175401,1.6175401 0 0 0 0.15785,-0.594425 l 7.5e-4,-0.02756 v -6.618214 c 0,-0.359087 -0.086,-0.554649 -0.16035,-0.665135 a 0.83639195,0.83639195 0 0 0 -0.33365,-0.280621 1.6131205,1.6131205 0 0 0 -0.62205,-0.159103 H 98.372263 c -0.359128,0 -0.554644,0.08619 -0.665139,0.160189 z"
       id="path3557"
       style="fill:#ffffff;stroke-width:1.10488" />
  </g>
</svg>
