<?xml version="1.0" encoding="UTF-8" standalone="no"?>
<!-- Created with Inkscape (http://www.inkscape.org/) -->

<svg
   width="36.542824mm"
   height="36.542828mm"
   viewBox="0 0 36.542824 36.542828"
   version="1.1"
   id="svg309"
   xmlns="http://www.w3.org/2000/svg"
   xmlns:svg="http://www.w3.org/2000/svg">
  <defs
     id="defs306" />
  <g
     id="layer1"
     transform="translate(-86.728586,-30.45235)">
    <circle
       style="fill:#212529;fill-opacity:1;stroke-width:0.415999;stroke-miterlimit:4.1;paint-order:stroke fill markers"
       id="path536"
       cx="105"
       cy="48.723763"
       r="18.271412" />
    <g
       id="g2073"
       transform="translate(0,0.49819979)">
      <path
         d="m 114.46391,45.622302 a 0.62159828,0.62159828 0 0 0 -0.0601,-0.94329 15.948802,15.948802 0 0 0 -9.40338,-3.049037 c -3.51303,0 -6.763262,1.130409 -9.40344,3.049037 a 0.62159828,0.62159828 0 0 0 -0.06152,0.94329 0.66389255,0.66389255 0 0 0 0.856131,0.06409 14.672282,14.672282 0 0 1 8.608829,-2.774764 c 3.21307,0 6.18647,1.027881 8.60751,2.773485 0.26254,0.189692 0.62798,0.166634 0.85613,-0.06278 z"
         id="path3740"
         style="fill:#ffffff;stroke-width:1.28164" />
      <path
         d="m 111.70261,48.385532 a 0.61775334,0.61775334 0 0 0 -0.0809,-0.954828 12.117962,12.117962 0 0 0 -6.62093,-1.955791 c -2.44153,0 -4.71647,0.717723 -6.620995,1.955791 a 0.61519004,0.61519004 0 0 0 -0.0809,0.954828 0.6728641,0.6728641 0 0 0 0.83564,0.08332 10.842724,10.842724 0 0 1 5.866095,-1.712282 10.842724,10.842724 0 0 1 5.86478,1.712282 c 0.264,0.169201 0.61519,0.138442 0.8369,-0.08332 z m -2.79781,2.797831 c 0.28967,-0.289672 0.23687,-0.775396 -0.12837,-0.961232 a 8.2960939,8.2960939 0 0 0 -3.7757,-0.90228 c -1.35855,0 -2.64275,0.325517 -3.77577,0.90228 -0.36523,0.185816 -0.41755,0.671579 -0.12788,0.961232 l 0.0194,0.01938 c 0.2049,0.205047 0.52165,0.243509 0.78308,0.115336 a 7.0208563,7.0208563 0 0 1 3.10163,-0.71644 c 1.11241,0 2.16593,0.257605 3.10156,0.717724 0.26012,0.128172 0.57673,0.08971 0.78177,-0.116644 z m -2.54539,2.545351 c 0.25141,-0.251211 0.25383,-0.666459 -0.0513,-0.845886 a 2.5504753,2.5504753 0 0 0 -1.30724,-0.358845 2.5504753,2.5504753 0 0 0 -1.30731,0.358845 c -0.30517,0.179422 -0.30226,0.59468 -0.0513,0.845886 l 0.90481,0.904838 a 0.64082292,0.64082292 0 0 0 0.90611,0 l 0.90612,-0.906122 z"
         id="path3742"
         style="fill:#ffffff;stroke-width:1.28164" />
    </g>
  </g>
</svg>
